<?xml version="1.0" encoding="UTF-8" standalone="no"?>
<svg
   viewBox="0 0 1024 1024"
   version="1.1"
   id="svg3"
   sodipodi:docname="logo.svg"
   inkscape:version="1.4.3 (0d15f75, 2025-12-25)"
   xmlns:inkscape="http://www.inkscape.org/namespaces/inkscape"
   xmlns:sodipodi="http://sodipodi.sourceforge.net/DTD/sodipodi-0.dtd"
   xmlns:xlink="http://www.w3.org/1999/xlink"
   xmlns="http://www.w3.org/2000/svg"
   xmlns:svg="http://www.w3.org/2000/svg">
  <sodipodi:namedview
     id="namedview3"
     pagecolor="#ffffff"
     bordercolor="#000000"
     borderopacity="0.25"
     inkscape:showpageshadow="2"
     inkscape:pageopacity="0.0"
     inkscape:pagecheckerboard="0"
     inkscape:deskcolor="#d1d1d1"
     inkscape:zoom="0.49204243"
     inkscape:cx="411.54987"
     inkscape:cy="647.3019"
     inkscape:window-width="1512"
     inkscape:window-height="854"
     inkscape:window-x="0"
     inkscape:window-y="33"
     inkscape:window-maximized="0"
     inkscape:current-layer="svg3" />
  <defs
     id="defs2">
    <linearGradient
       id="linearGradient1"
       inkscape:collect="always">
      <stop
         style="stop-color:#ffffff;stop-opacity:1;"
         offset="0.00160514"
         id="stop4" />
      <stop
         style="stop-color:#c7fde8;stop-opacity:1;"
         offset="1"
         id="stop5" />
    </linearGradient>
    <linearGradient
       id="bg"
       x1="0"
       y1="0"
       x2="1"
       y2="1">
      <stop
         offset="0"
         stop-color="#0a84ff"
         id="stop3"
         style="stop-color:#00d656;stop-opacity:1;" />
      <stop
         offset="1"
         stop-color="#5e5ce6"
         id="stop2"
         style="stop-color:#05d758;stop-opacity:1;" />
    </linearGradient>
    <linearGradient
       inkscape:collect="always"
       xlink:href="#linearGradient1"
       id="linearGradient5"
       x1="11.499998"
       y1="0.90004641"
       x2="11.499998"
       y2="22.100048"
       gradientUnits="userSpaceOnUse" />
    <filter
       style="color-interpolation-filters:sRGB;"
       inkscape:label="Blur"
       id="filter10"
       x="-0.070526317"
       y="-0.070521461"
       width="1.1410526"
       height="1.1410478">
      <feGaussianBlur
         stdDeviation="0.1 0.1"
         result="blur"
         id="feGaussianBlur10" />
    </filter>
  </defs>
  <rect
     width="1024"
     height="1024"
     fill="url(#bg)"
     id="rect2"
     style="fill:#00e265;fill-opacity:1"
     x="0"
     y="0" />
  <g
     transform="matrix(34.710466,0,0,34.710466,118.82964,118.82804)"
     fill="none"
     stroke="#ffffff"
     stroke-width="2.2"
     stroke-linecap="round"
     stroke-linejoin="round"
     id="g3-2"
     style="display:inline;stroke:#000000;stroke-opacity:0.03610108;filter:url(#filter10)">
    <path
       d="M 11,20 A 7,7 0 0 1 9.8,6.1 C 15.5,5 17,4.48 19,2 c 1,2 2,4.18 2,8 0,5.5 -4.78,10 -10,10 z"
       id="path2-7"
       style="stroke:#000000;stroke-opacity:0.03610108" />
    <path
       d="M 2,21 C 2,18 3.85,15.64 7.08,15 9.5,14.52 12,13 13,12"
       id="path3-3"
       style="stroke:#000000;stroke-opacity:0.03610108" />
  </g>
  <g
     transform="matrix(34.710466,0,0,34.710466,112.82964,112.82804)"
     fill="none"
     stroke="#ffffff"
     stroke-width="2.2"
     stroke-linecap="round"
     stroke-linejoin="round"
     id="g3"
     style="stroke:url(#linearGradient5);stroke-opacity:1"
     sodipodi:insensitive="true">
    <path
       d="M 11,20 A 7,7 0 0 1 9.8,6.1 C 15.5,5 17,4.48 19,2 c 1,2 2,4.18 2,8 0,5.5 -4.78,10 -10,10 z"
       id="path2"
       style="stroke:url(#linearGradient5);stroke-opacity:1" />
    <path
       d="M 2,21 C 2,18 3.85,15.64 7.08,15 9.5,14.52 12,13 13,12"
       id="path3"
       style="stroke:url(#linearGradient5);stroke-opacity:1" />
  </g>
</svg>
